<svg width="1200" height="1500" viewBox="0 0 1200 1500" xmlns="http://www.w3.org/2000/svg" role="img" aria-labelledby="title desc">
  <title id="title">Retrato artístico de Víctor Echevarría</title>
  <desc id="desc">Ilustración abstracta en tonos tierra para portada de sitio web de artista</desc>
  <defs>
    <linearGradient id="bg" x1="0" y1="0" x2="1" y2="1">
      <stop offset="0" stop-color="#e6dfd2"/>
      <stop offset="1" stop-color="#c8bea9"/>
    </linearGradient>
    <linearGradient id="paint" x1="0" y1="0" x2="0" y2="1">
      <stop offset="0" stop-color="#5a3d2e"/>
      <stop offset="1" stop-color="#2f2219"/>
    </linearGradient>
  </defs>

  <rect width="1200" height="1500" fill="url(#bg)"/>

  <ellipse cx="630" cy="840" rx="315" ry="405" fill="#b39f84" opacity="0.9"/>
  <ellipse cx="610" cy="740" rx="230" ry="260" fill="#dacfb8"/>

  <path d="M430 700 C 500 560, 720 560, 790 700 C 760 650, 460 650, 430 700 Z" fill="#3a2a1f" opacity="0.7"/>
  <path d="M495 780 C 530 840, 690 840, 725 780 C 690 740, 530 740, 495 780 Z" fill="url(#paint)"/>

  <circle cx="545" cy="745" r="22" fill="#2f2219"/>
  <circle cx="675" cy="745" r="22" fill="#2f2219"/>

  <rect x="485" y="980" width="280" height="390" rx="30" fill="#7d614a" opacity="0.82"/>
  <rect x="535" y="1030" width="180" height="300" rx="18" fill="#dacfb8" opacity="0.45"/>

  <path d="M150 1260 C 320 1200, 560 1240, 800 1330" stroke="#6d513d" stroke-width="24" fill="none" opacity="0.5"/>
  <path d="M420 240 C 600 210, 840 270, 980 410" stroke="#7f634d" stroke-width="18" fill="none" opacity="0.45"/>

  <text x="90" y="1420" font-family="Georgia, serif" font-size="54" fill="#2f2219" opacity="0.8">Víctor Echevarría</text>
</svg>